<?xml version="1.0" encoding="utf-8"?>
<!-- Generator: Adobe Illustrator 24.0.1, SVG Export Plug-In . SVG Version: 6.00 Build 0)  -->
<svg version="1.1" id="图层_1" xmlns="http://www.w3.org/2000/svg" xmlns:xlink="http://www.w3.org/1999/xlink" x="0px" y="0px"
	 viewBox="0 0 595.28 841.89" style="enable-background:new 0 0 595.28 841.89;" xml:space="preserve">
<style type="text/css">
	.st0{fill:none;stroke:#000000;stroke-miterlimit:10;}
</style>
<path class="st0" d="M446.6,14.2c0,0,0.6,0.9,1.2,2.3c0,0,0.5,1.2,0.8,2.9c0.1,0.8,0.1,1.1-0.1,1.3c-0.3,0.2-0.7-0.2-1.2-0.4
		c-1.1-0.5-2.1-0.3-3-0.1c-1.5,0.2-1.5-0.3-6.2-0.3c-3.8,0-6.6-0.1-9.6,0.6c-0.6,0.1-1,0.2-1.4,0.4c-1.5,0.5-1.9,0.8-4.8,2.4
		c-1.3,0.7-2.6,1.3-3,1.5c-0.5,0.2-0.9,0.4-1,0.5c-3.9,1.9-7.8,3.5-9.3,4.6c-1.5,1-5.3,3.9-8.1,8.9c-2.7,4.9-3.1,9.5-5.7,9.8
		c-0.4,0.1-0.6,0-1.5-0.2c-5.1-1.2-9.6-0.3-11.1,0c-2.2,0.4-3.8,0.7-5.4,1.9c-1.5,1.1-2.3,2.4-3.1,3.8c-2.1,3.9-3.3,7.8-4.7,14.1
		c-0.5,2.1-0.8,3.9-1.5,7.7c0,0-2.1,11.1-1.7,14c0,0.1,0.1,0.6,0,1.3c-0.1,0.7-0.5,1.5-0.5,1.5c-0.9,1.9-1.7,3.7-2.6,5.6
		c-0.5,1.1-0.9,2.2-1.7,4.5c-0.8,2.2-1.3,3.5-1.7,5.4c-0.2,1-0.2,0.9-1,5.3c-0.8,4-0.8,3.9-0.8,4.2c-0.2,2.6,0.3,4.5,1,7.1
		c0.8,2.9,1.2,4.3,2.1,5c0.2,0.1,0.8,0.5,0.8,1.1c0,0.4-0.2,0.6-0.5,1.3c-0.2,0.6-0.2,1-0.2,1.5c-0.1,1.2-0.4,1.8-0.8,3.1
		c-0.5,1.9-1.4,4.9-0.1,6.4c0.3,0.3,0.8,0.7,0.8,1.4c0,0.5-0.2,1-0.3,1.1c-0.6,0.9-0.1,0.7-1.5,4c-1.8,4.3-3.5,7.3-3.5,7.3
		c-1.6,2.4-3.2,4.7-4.8,7.1c-0.4,0.5-4.6,5.4-7.4,7.7c-0.7,0.5-1.4,1.1-1.4,1.1c-0.5,0.3-1.6,1.2-3.5,2.4c-1.2,0.7-2.4,1.5-4.1,2.4
		c-2.6,1.4-3.8,1.8-4.5,1.9c-1.9,0.5-3,0.5-3.8,0.3c-0.9-0.2-1.5-0.5-1.7-0.6c-3.1-1.5-6.1-1.7-11.3-3.7c-2.7-1-3-1.4-5.6-2.5
		c-10.6-4.6-21.3-5.3-28.6-5.7c-1.1-0.1-1.9-0.1-2.5-0.1c-4.8-0.1-8.4,0.4-11.9,0.9c-6.3,0.9-9.5,1.4-11.3,1.7
		c-20.1,3.5-33.7,6.5-38.5,7.8c-0.3,0.1-1.1,0.3-2.3,0.6c-4.1,1-7.2,1.3-7.9,1.4c-4.4,0.5-9.2,2.7-13.9,4.9c-1.1,0.5-2,1-2.9,1.4
		c-2.8,1.4-3.9,2.2-7.8,4.5c-2.2,1.3-4,2.3-5.5,3.2c-3,1.7-4.5,2.5-5.7,3.2c-2.2,1.2-3,1.6-5.1,2.8c0,0-0.5,0.3-1,0.6
		c-4.6,2.8-13.7,9.4-18,13.3c-8.4,7.9-15.3,22.7-19.3,35.9c0,0-4.5,16.6-1.8,39.8c0.1,1,0.3,1.7,0.3,1.9c1,4.2,3.5,6.9,4.6,8.1
		c2,2.1,3.9,3.3,5.1,4.1c0.4,0.2,3.3,2,6.7,3c4.8,1.4,8.7,0.7,15.4-0.5c0,0,9.3-1.6,17.5-5.4c1.2-0.6,2.3-1.1,2.3-1.1
		c0.3-0.2,0.1-0.1,1.5-0.8c0.9-0.5,1-0.5,1-0.6c0-0.1-3.6,1.3-5,1.9c-2.3,0.9-7.8,3-13.9,4.2c-3,0.6-7.1,1.3-12.5,0.9
		c-3.7-0.3-7.1-0.6-10.5-2.8c-1.1-0.7-3.7-2.5-6.2-6.6c-4.9-8.1-4.4-17.3-3.9-27.2c0,0,0.3-5.3,3.9-22.5c0.1-0.7,0.3-1.6,0.5-1.5
		c0.1,0,0.1,1,0.1,1.8c0,0.5-0.1,0.9-0.1,0.9c-0.4,2.1-0.6,4.2-1.1,6.3c-0.8,3.7-0.6,6.9-0.5,9.1c0.1,1.7,0.2,3,0.3,4
		c1.9,7.7,3.6,13.3,4.2,14.5c0.3,0.6,0.6,1.1,0.6,1.1c0.6,1,1.1,1.8,1.3,2.1c1.9,2.6,5.9,3.9,7,4.6c0,0,0.2,0.2,0.5,0.3
		c0.1,0,0.7,0.3,0.7,0.2c0.1-0.1-0.2-0.4-0.6-0.8c-0.3-0.4-0.6-0.6-0.6-0.6c-0.5-0.4-1.3-0.9-2.1-1.6c-0.6-0.5-2-1.9-3.5-4.3
		c-1.3-2.1-1.9-3.8-2.7-6c-0.6-1.9-1.6-4.6-2.2-8.5c-0.1-1-0.6-4-0.3-8.9c0.5-11.6,3.9-20.3,4.6-22c1.1-2.8,2.8-6.3,3.3-7.3
		c0.8-1.7,2.2-4.5,3.5-6.9c1.1-2,6.3-10.9,16.2-18.9c2.3-1.8,3.4-2.6,3.4-2.6c0.7-0.5,1.5-2.1,2-1.4c0,0-4,3.9-6,2.8
		c-0.6-0.3-0.8-0.9-0.9-1.1c-0.7-1.8-4.3-5.5-11.3-12.9c-3.7-3.9-5.5-5.8-7.3-7.3c-4.9-4.2-9.3-6.5-12.1-8
		c-1.3-0.7-6.9-3.6-15.4-6.2c-1.9-0.6-9.1-2.7-19.9-3.9c-8.5-1-17.6-2-29.4-0.1c-10,1.6-16.9,4.4-25.8,8.1
		c-9.9,4.1-14.9,6.2-19.3,11c-6.3,6.7-8.2,14.4-9,17.8c-0.4,1.5-0.6,2.6-0.7,3c-1.1,6-0.4,11.1,0.3,14.3c0,0,2.7,8.4,9.5,13.5
		c0.2,0.1,0.6,0.4,0.6,0.4s0,0,0,0c0.2,0.1,0.3,0.3,0.3,0.3c0.2,0.1,1.6,1.7,1.3,2c-0.3,0.3-2.8-1.4-3.8-2.2
		c-2.3-1.7-3.8-3.4-4.2-3.8c-0.9-1-3.3-3.9-5.1-7.9c-2.8-6.6-2.2-12.7-1.8-16.3c0.7-7,3.1-11.9,4.7-15.2c1.8-3.8,3.5-7.2,6.9-10.5
		c2-1.9,4.7-4,12.9-7c12.7-4.8,22.3-5.9,22.2-6.8c-0.1-0.5-3.4-0.6-5.8-0.5c-10.8,0.6-18.3,6.1-19.6,7c0,0-8.3,6.2-15.2,21.8
		c-0.2,0.4-0.4,0.8-0.4,0.8c-0.5,1.1-1.7,4.2-2.7,9c-0.1,0.7-0.4,1.9-0.6,3.1c-0.3,2.5-1,7.2,0.7,12.7c0,0,2.1,6.9,7.7,11.8
		c1.5,1.4,2.1,1.8,2.1,1.8c0.1,0,0.3,0.2,0.5,0.4c0.2,0.1,0.5,0.5,0.9,1c0.3,0.4,0.5,0.8,0.4,0.9c0,0.1-0.2,0.1-1.5-0.6
		c-1.5-0.9-2.5-1.7-2.5-1.7c-1.9-1.6-2.8-2.4-3.4-3c-3-3.1-4.7-6.5-5-7.1C4.2,215,4.1,210.1,4,207.2c0-5.2,1-9,1.9-12.1
		c0.2-0.8,1-3.4,2.4-6.6c3.5-8.2,8.3-14.1,11.2-17.6c0.1-0.2,0.2-0.2,0.3-0.3c5-5.9,10.6-7.8,11.4-7.9c0.2,0,0.5-0.1,0.9-0.3
		c0.8-0.2,1-0.3,1-0.4c0.1-0.3-0.7-0.7-0.8-0.7c-1.1-0.5-2.4-0.2-3.1,0c-2.6,0.7-4.2,1.5-4.2,1.5c-2.7,1.3-4.1,2-5.7,2.9
		c-2.4,1.4-3.6,2.1-5.1,3.4c-2.5,2.1-3.9,4.1-4.9,5.7c-1.2,1.8-3.2,4.8-4.2,8.8c0,0-0.8,3.2-0.8,6.9v0.4c0,0,0.1,0.3,0.3,0.5
		c0.1,0.1,0.3,0.1,0.5,0c0.1,0,0.3-0.1,0.8-0.4c0.5-0.3,0.8-0.6,0.9-0.7c0.1-0.2,0.3-0.3,0.3-0.4c0.1-0.2,0.2-0.3,0.2-0.4
		c0.3-0.5,0.8-1.1,0.9-1c0,0-0.1,0.3-0.2,0.5c-0.5,1-1.5,3.9-2.2,6.4c0,0-1.5,5.5-1.8,10.9c0,0.4,0,0.5,0,0.5c0,0.7,0,0.8,0,0.8
		c-0.1,0-0.7-1.5-1.1-3.3c-0.5-2.1-0.7-3.8-0.7-4.5c-0.3-3.2-0.5-5.3-0.5-8.8c0-5.1,0-7.7,0.4-9.8c1.1-6,5.9-10.6,9.2-13.6
		c6.5-5.8,13.6-8.1,17.8-9.1c2.7-0.2,6.7-0.4,11.7-0.7c9.2-0.6,20.4-1.3,34.2-2.3c19.1-1.4,19.8-1.6,24-1.4
		c12,0.6,20.5,2.9,23.3,3.8c5.5,1.6,9.8,3.6,18.3,7.7c19.9,9.4,30.1,14.2,33.9,20c0.6,1,3,4.9,5.3,4.5c0.7-0.1,1.2-0.6,1.3-0.8
		c3.6-3.7,14.6-7.7,18.4-8.9c3-0.9,2-0.3,11-2.2c6.9-1.4,9.5-2.2,15.6-3.6c3.8-0.9,17.7-4,35.6-6.5c4.1-0.6,6.2-0.8,7.5-0.9
		c7.1-0.5,14.9-0.1,47.5,9.2c6.5,1.8,13,3.5,19.4,5.3c4,1.1,6.3,1.7,9.6,2.3c3.9,0.6,8.9,1.5,15.4,0.8c1.8-0.2,6.3-0.8,11.8-2.7
		c9.4-3.4,15.8-8.9,15.7-9c0-0.1-1,0.6-3,1.4c-1.4,0.6-2.6,0.9-3.4,1.1c-5.7,1.6-9.4,2.3-9.4,2.3c-9.3,1.8-17.8,2.4-17.8,2.4
		c-12.8,0.9-26.4,0.4-26.4-0.5c0-0.1,0.1-0.2,1.3-0.6c3.6-1.3,5.5-1.9,7.4-2.3c4.6-0.9,14.7-4.2,20-6.3c1.9-0.8,10.5-4.2,20.1-11.1
		c2.6-1.8,8.1-6,13.8-12.2c0.6-0.7,4.1-4.4,7-9.4c0,0,2.7-4.6,3.4-8.8c0.1-0.4,0.1-0.7,0.1-0.7c0.2-1.3,0.1-1.9,0.2-1.9
		c0.2,0,1,2.1,1.1,4.8c0,1,0,1.1,0,2.7c0,1.1,0.1,1.9,0.2,3.3c0.3,3.1,0.4,3.1,0.3,4.1c-0.1,1.4-0.3,1.3-0.5,3.2
		c-0.2,1.7,0,2-0.1,3.7c-0.1,1.1-0.2,1.9-0.6,3.7c-0.5,2.4-0.7,3.6-1.1,4.8c-0.5,1.2-0.9,2-1.7,3.4c-0.5,0.9-0.6,1-2.2,3.5
		c-1,1.5-1.4,2.3-1.7,2.9c-1.1,2.1-0.9,2.2-1.6,3.1c-0.4,0.5-1.1,1.2-2.6,2.5c-0.9,0.8-1.7,1.5-1.8,1.6c-6.8,5.7-16.5,9.8-16.5,9.8
		c-18.8,8-20.1,10.4-29.3,13c0,0-7.5,2.2-15.7,2.8c-7.4,0.5-32.3-0.1-59.2-11.2c-3.5-1.4-8.2-3.5-15.1-4.6
		c-7.3-1.1-13.8-0.5-20.9,0.9c-13.6,2.7-16.4,5.9-43.2,17.3c-13.8,5.8-19.4,7.6-25.4,14.2c-5.4,5.8-7.7,11.8-9,15.3
		c-2.6,6.7-4,14.8-1.8,18c2.9,4.1,3.1,4.3,3.1,4.3c0.8,1,1.6,2,1.5,2.2c-0.1,0.1-0.8-0.3-1-0.5c-1.4-0.9-2.1-2-2.2-2.1
		c-1.5-2.2-3.5-3.9-4.3-5.3c-3.4-5.3-0.8-13.7,1-17.3c0.7-1.4,2.9-5,3.9-6.5c1-1.5,1.1-1.7,1.1-1.7c0.4-0.5,0.6-0.9,1.1-1.7
		c0.7-1,0.7-1.1,0.7-1.1c-0.1-0.1-0.9,0.5-3.3,2.5c-2.3,1.9-3.1,2.6-3.1,2.6c-3.6,3.2-5.6,5-8.3,7.7c-4.4,4.3-6.6,6.4-7.4,7.5
		c-4.2,5.8-4.6,12.2-4.9,17.7c-0.5,7.7,1,13.5,1.8,16c2.5,8.3,6.4,12.1,7.4,12.7c0,0,0.8,0.4,1.6,1.2c0.4,0.4,1.3,1.2,1.1,1.4
		c-0.1,0.1-0.8-0.2-1.3-0.5c-2.9-1.5-4.3-2.2-5-2.7c-4.4-3.2-6.8-12.8-7.2-14.2c-0.6-2.4-1.3-5.4-1.3-9.5c0-5.7,1.4-14.4,1.6-15.3
		c0,0,0.1-0.4,0.1-0.9c0.1-0.8,0.1-1.8-0.1-1.8c-0.1,0-0.3,1-0.5,1.5c-0.9,4-1.3,6-1.4,7c-1.1,8.5-2.2,11.3-2.6,18.1
		c-0.4,6.6-0.8,15,3.4,23.6c1,2.1,3,5.4,6.8,7.8c3.5,2.2,6.9,2.5,10.5,2.8c5.3,0.5,9.4-0.3,12.5-0.9c6.1-1.2,11.6-3.3,13.9-4.2
		c1.8-0.7,5-2,5-1.9c0,0-0.8,0.5-1,0.6c-1.4,0.7-1.2,0.6-1.5,0.8c0,0-1.1,0.5-2.3,1.1c-8.2,3.8-17.5,5.4-17.5,5.4
		c-6.8,1.1-10.7,1.8-15.4,0.5c-3.5-1-6.4-2.7-6.7-3c-1.3-0.8-3.2-2-5.1-4.1c-1.2-1.3-3.6-3.9-4.6-8.1c-0.2-0.8-0.3-1.4-0.3-1.9
		c-0.8-6.6-0.5-11.9-0.8-16.3c-0.4-4.8-1.4-5.7-2.1-9.9c-2.1-11.7,2.5-22.1,4.5-26.5c4.6-10.5,11.3-16.6,15.8-20.8
		c4.6-4.3,8.9-7,17.4-12.5c4.4-2.8,9.4-5.6,19.4-11.3c9.4-5.3,14.1-8,16.4-8.8c5.5-2.1,11.4-3.3,20.9-5.4c2.9-0.6,5.6-1.8,8.6-1.9
		c0,0,1.5,0.3,2.7-0.4c0.1-0.1,0.2-0.2,0.2-0.3c0.1-0.3-0.4-0.5-0.6-0.7c-0.5-0.7-0.6-1.4-0.7-1.8c-0.2-1-1.3-3.7-3.3-8.9
		c-0.5-1.4-2.3-4.1-5.8-9.5c-2.1-3.2-3.9-5.7-6.9-7.2c-0.5-0.2-0.9-0.4-1.1-0.5c-3.2-1.2-6-0.9-7.6-0.7c-4.4,0.6-7.7,2.5-9,3.3
		c-1.5,0.9-5.2,3.4-12.5,13.7c-9.1,12.9-13.4,23.4-13.7,24.6c0,0-0.2,0.6-0.6,1.4c-0.3,0.6-1,1.8-1.3,1.7c-0.3-0.1,0.1-1.6,0.3-2.9
		c0.1-0.6,0.6-2.8,1.1-4.2c2.3-6.4,8.1-14.3,8.1-14.3c9.1-12.4,6.8-11.5,10.6-15.3c3.5-3.5,9.1-9,17-9.3c1.3,0,4.8-0.1,8.6,1.8
		c3.4,1.7,5.3,4.3,7.3,7c1.6,2.1,2.4,3.6,4.7,8c3.4,6.4,5,9.6,5.8,11.3c3.6,7.7,3.9,9.8,7.9,19.2c4.8,11.6,7.4,17.6,12.1,23.7
		c2,2.5,4.3,4.8,9,9.5c6.8,6.7,11.8,11.6,19.5,16.2c6.5,3.9,10.7,5.1,12.4,5.5c2.5,0.6,6.5,1.6,11.7,1c2.3-0.3,6.2-0.8,10.3-3.3
		c0.6-0.4,2.8-1.8,5-4.3c2-2.3,3.1-4.4,3.9-6.1c3.7-7.5,5.5-11.2,6.5-14.2c0,0,2.4-7.1,3.5-17.3c0.1-0.9,0.1-1.1,0.1-1.1
		c0-1.2-0.1-1.5,0.1-1.8c0.2-0.3,0.6-0.1,1.6-0.2c0,0,0.2,0,1.5-0.2c2.6-0.3,7.5-2.6,8.4-1.5c0.3,0.4,0,1.3-0.6,3
		c-0.7,1.8-1.1,2.8-2.1,4.3c-1.9,3.1-2.5,6.2-3.4,9c-2.2,6.6-6.9,12.3-10.1,16.1c-2.8,3.4-7,8.4-13.8,12.8c-4.1,2.6-13.1,8.4-25.7,8
		c-9.4-0.3-15.9-3.9-22.4-7.5c-22.1-12.4-31.8-33.6-32.8-36.1c-0.1-0.3-0.5-1.2-1.1-2.4c-1.9-3.4-4.7-5.7-6.9-7.4
		c-1.5-1.2-3.2-2.4-4.3-4.8c-0.3-0.7-0.6-1.2-0.3-1.5c0.8-0.9,6.9,2.9,11.1,6.3c4.1,3.3,6.2,4.9,8,6.9c0.5,0.5,1.6,1.8,1.8,1.6
		c0.3-0.2-1-2.4-1.5-3.2c-0.8-1.3-2.4-5.5-5.6-13.7c-2.4-6.1-3.2-8.3-4-11.7c-0.1-0.5-1-1.8-0.6-2.5c0.3-0.5,1.2-0.7,1.7-0.4
		c0.5,0.3,0.5,0.9,0.6,1.3c0,0.1-0.1-0.4,1.7,4c3.3,8.4,4.2,10.8,4.2,10.8c2,5.2,5.2,13.8,9.5,20.4c1.8,2.7,1.4,1.6,6.1,7.9
		c0.5,0.7,1,1.3,1.9,1.9c2.9,1.9,6.6,0.8,8,0.4c5.7-1.5,4.5,0.9,23.7-0.8c11.8-1,17.7-1.6,20-3.1c5.5-3.6,11.3-11.5,14.3-14.9
		c0.3-0.4,0.8-0.8,1.3-1.6c0.5-0.8,0.5-0.9,0.7-1.1c1.5-1.7,6.3,0.9,8.6,0c0.1-0.1,0.5-0.2,0.8-0.1c0.2,0.2,0,0.7-0.1,1.8
		c-0.1,0.4,0,0.1-0.1,1.1c-0.4,3.9-0.8,3.9-0.8,5.8c0,0.3,0,0.8-0.2,1.3c-0.4,0.9-1.1,1.3-1.3,1.5c-1.6,1.1-1.4,2.1-7.5,6.9
		c-5.1,4-9.7,6.7-10.6,7.3c-5.7,3.4-10.8,6.5-18,8.7c-9.4,2.9-14,4.4-16.1,4.5c-0.4,0-2,0.1-2.1,0.6c-0.1,0.5,1.5,1.3,3.4,2.1
		c4.9,2.3,4.6,2.6,7.1,3.7c2.7,1.1,8.1,3.5,15.2,3c0.8,0,9.4-0.7,14.3-5.1c0.4-0.4,2-1.9,2-1.9c0,0-1,1-2,1.9
		c-1.4,1.1-2.7,1.9-4.5,2.8c-7.4,3.6-13.3,4.7-13.3,4.7c-4.9,1-8.7,0.9-9.5,0.9c0,0-9.5-0.3-22.4-7.5c-2.9-1.6-3.5-2.1-3.5-2.1
		c-0.5-0.4-1-1.1-1.6-1.1c-0.7,0-1.1,0.7-1.3,0.9c-0.9,1.2-2.8,1.8-6.3,3c-5.1,1.7-13,2.7-22.1,3.9c-4.8,0.6-4.7,0.6-5.4,0.7
		c-7.8,0.4-13.8-1.7-16.6-2.6c-10.9-3.9-17.6-11-20.5-14.1c-8-8.6-12.3-18.6-11.7-19c0.3-0.2,4.1,4.6,4.1,4.6c0.9,1.8,2.2,4.1,4,6.7
		c1.5,2.1,5.9,8,13.7,13.3c3.8,2.6,11.1,7.4,21.3,8.3c5.3,0.5,10.9-0.7,22.1-3c2.3-0.5,9.4-1.9,9.3-2.6c-0.1-0.5-4.2-0.4-5.8-0.3
		c-12.9,0.3-24.1-2.5-28.9-3.8c-5.2-1.3-15.6-4-25.1-10.6c-7.4-5.2-9.7-9.6-14.5-12.6c-0.5-0.3-2.6-1.6-2.4-2.6
		c0.1-0.6,1.2-0.9,1.6-0.9c3.4-0.8,2.9-2.1,9.8-4.6c6.7-2.4,10.1-3.6,13.9-2.5c1.5,0.4,1.1,0.7,4.8,2.4c3.8,1.8,5.6,2.2,9.3,3.5
		c7.2,2.7,7.7,3.8,13.9,5.9c1.9,0.7,4.6,1.5,8,2.2c0.9,0.2,2.1,0.8,2.4,0.4c0.3-0.4-0.9-1.6-2.1-3.5c-1.1-1.7-1.4-2.5-2.4-4.5
		c-1.6-3.1-2.9-5.8-5.1-8.2c-2.6-2.9-4-2.9-7-6.7c-2-2.6-2.1-3.5-1.9-4c0.5-1.2,2.3-0.7,6.3-2.1c2.5-0.9,3-1.5,5.9-2.3
		c2.3-0.7,3.1-0.1,3.5-0.8c0.9-1.4-0.8-5.4-3.1-7.4c-0.3-0.3-0.8-0.7-0.7-1c0.2-0.6,2.5-0.2,3.3-0.1c5.2,0.8,7.1,0.1,12.8,0.9
		c9.2,1.3,32.3,7.2,41.4,9.3c10,2.3,25,5.6,44.1,4.9c6.6-0.2,15.9-0.6,27.5-3.8c7.2-2,33.5-9.1,42.2-27.3c1.7-3.5,2.7-7.4,2.8-7.6
		c1.9-7.3,1.1-13.2,0.1-22c-1-8.1-2-9.6-2.3-16.5c0-0.9-0.1-3.5-0.5-3.5c-0.2,0-0.5,1.3-1.3,6.2c-0.4,2.5-0.6,3.7-0.9,5.8
		c0,0-0.8,5.3-2.7,11.2c-2.7,8.3-8.1,14.5-10,16.7c-8.2,9.5-17.6,13.6-27.9,18.1c-5.4,2.3-6.7,2.2-16.3,5.7
		c-0.6,0.2-2.1,0.8-2.3,0.6c-0.1-0.2,1.6-1.1,3.5-2.4c3.2-2.2,7.4-5.9,8.8-8.7c0.1-0.3,0.5-0.9,1.1-1.6c1.1-1.1,2.4-1.4,2.6-1.5
		c3.5-1,11.2-9.5,11.2-9.5c8.9-9.8,13.9-14.2,22.1-24.7c1.8-2.3,4-5.3,5.4-9.6c0.6-2.1,1.2-5.8,1.5-8.1c0-0.3,0.1-1.2,0.3-3.1
		c0.4-4,0.5-4.5,0.2-4.6c-0.6-0.3-2.3,2.5-4.2,5.3c-0.5,0.8-9.5,13.2-12.1,11.9c-0.6-0.3-0.7-1.1-0.8-2.1c-1.1-9.3-1.7-13.9-1-15.4
		c0.8-1.7,0.9-0.5,9.5-7.4c0,0,8.2-6.6,12.7-7.7c0.1,0,0.3-0.1,0.7-0.2c1.4-0.5,2.8-1.4,3.5-2.3c0.8-1.2,0.6-2.6,0-4.8
		c-1.8-6.9-3.5-7-4-11.3c-0.1-0.8-0.4-3.3-0.9-6.9c-0.2-1.6-0.4-2.5-0.7-2.6c-0.4,0-0.8,1.5-1.5,4.2c-2.3,9.3-2.4,11.7-1.8,14.1
		c0.2,0.8,0.4,1.8,1,3c0.7,1.4,1.4,1.8,3,4c1,1.5,1.6,2.2,1.5,2.7c-0.3,1.2-2.6,1.1-5.8,2.6c-1.5,0.7-2.3,1.3-3.9,2.6
		c-9.5,7-11.8,6.8-13.1,10.1c-0.3,0.7-0.1,3.6,0.3,9.3c0.5,7,0.8,7.9,1.5,8.2c1.7,0.7,4.5-2.6,7.7-6.1c3.2-3.7,3.6-4.9,7.8-10.5
		c3.3-4.4,3.7-4.3,5.4-7c2.3-3.6,4-6.3,4.2-10.1c0.1-2.3-0.3-4.5-0.7-6.2c-0.6-2.6-1.4-4.7-1.7-5.6c-1.2-3.2-1.6-3.1-2.2-5.1
		c-0.5-2.1-0.1-2.3-0.7-5.5c-0.6-3.5-1.1-3.2-1-4.6c0.1-2.7,2-3,3.8-7c1.3-2.8,0.6-3.3,2.1-6.5c0.5-1.2,1.2-2.4,3.3-5.5
		c3.1-4.6,4.7-6.8,6.4-8.6c4-4.2,8-6.3,9-6.8c1.9-1,4.7-2.4,8.6-3.1c3.9-0.7,7.5-0.4,10.4-0.1c2.3,0.2,2.4,0.4,4.2,0.4
		c1.6,0,2.7-0.2,3.1,0.4c0.3,0.5-0.2,1-0.2,2.5c0,1.1,0.4,1.2,0.4,2.4c0,0.3,0,1.1-0.3,2.1c0,0-0.4,1.3-1.3,2.4
		c-2.7,3.3-9.1,5.2-9.1,5.2c-4.6,1.3-7.7,5.4-13.8,13.6c-6.4,8.6-9,16.4-10.5,20.9c-3,9.2-2.3,13.1-1.9,14.6
		c0.6,2.7,1.4,3.3,1.3,5.3c-0.4,5.4-6.7,9-11,11.4c-0.5,0.3-5.8,3.3-9.2,3.3c-0.2,0-1.3,0-1.3,0.2c0,0.2,1.5,0.6,2.2,0.7
		c3.1,0.5,5.9-0.9,8.3-2.3c1.8-1,3.9-2.1,6-4.4c1-1.2,1.8-2.3,2.1-2.1c0.4,0.2-0.5,2.4-1,3.9c-1.8,5.5-1.1,10.5-0.9,12.1
		c0,0,0.4,2.5,2.9,10.3c0.2,0.7,0.5,1.6,0.5,1.6c0.2,0.5,0.4,1.3,0.4,1.3c-1-2.3-2.3-5.9-2.7-10.4c-0.4-4.1-0.8-8,1.1-12
		c0,0,1.8-3.8,11.8-12.6c0,0,0.1-0.1,0.1-0.1c1.6-1.4,1.8-1.7,1.9-1.6c0.2,0.1-0.8,2-1.9,4.6c-1.2,2.9-1.9,4.3-2.1,5.6
		c-0.2,1.5-0.1,2.5-0.7,4.9c0,0-0.2,0.9-0.5,1.7c-1,3.2-3.2,5.8-3.9,6.6c-5.2,6.5-4,16-3.7,17.7c0.3,1.3,0.9,2.6,0.9,2.6
		c0.2,0.5,1,2,1.1,1.9c0.3-0.1-1.5-3.6-1.7-7.4c-0.2-3.7,1.3-6.3,4.2-11.4c2.5-4.4,4.1-6,8.5-12.3c0.3-0.4,1-1.3,1.8-2.5
		c0.4-0.6,0.5-0.8,1.1-1.6c0.9-1.4,1.4-2.1,1.8-2.5c0.9-0.8,1.2-0.8,2.1-1.6c1.6-1.4,2.1-3,2.2-3c0.1,0.1-3.2,5.7-5.3,12.6
		c-1.1,3.8-1.6,7-1.7,9c-0.2,2.1-0.2,3.7-0.2,4.2c0,4.7-0.1,8.2,1.9,11.2c1.7,2.6,4.2,4,5.7,4.7c-1.8-0.7-8.6-3.7-11-10.6
		c-1.4-4.2-0.5-7.9,0.6-12.5c1.8-7.4,5.5-12.9,7.8-16.2c2.1-3.1,2.8-3.5,5-7.1c1.9-3,4-6.9,5.3-9.2c2.5-4.6,2.9-5.5,3.2-5.4
		c1,0.3,0.3,8.4-2.3,16.2c-1.3,3.9-2,4.6-3.4,9.6c-1.2,4.2-1.8,7.4-2.2,9.5c-1.2,7-1,10.4-1,11.4c0.1,0.8,0.2,1.7,0.2,1.7
		c0.2,1.5,0.5,2.6,0.5,2.9c0.1,0.3,0.5,2,1,3.2c0.1,0.4,0.3,0.6,0.2,0.6c0,0-0.1-0.2-0.1-0.2c-0.4-0.8-2.1-4.5-2.7-6.9
		c-0.1-0.3-0.2-0.6-0.2-0.6c-0.1-0.5-0.2-0.9-0.3-1.2c-0.3-3.2-0.5-7.7,0.1-13c0.1-0.9,0.3-1.8,0.4-2.8c0.5-4,0.7-4.6,0.5-4.7
		c-0.3-0.1-1.6,1.9-5.5,10.4c-2.6,1.9-3.4,3.9-3.7,5c0,0.1,0,1.1-0.1,2.2c0,0.7,0,1,0,1.8c0,0.8,0,1.2-0.1,1.5
		c-0.1,1.7-0.1,3.1,0.2,4.7c0.3,1.6,0.6,2,0.9,2.3c0.8,0.6,1.3,0,3.4,0.2c1.3,0.2,2.4,0.6,3,0.8c1.1,0.5,0.9,0.6,1.6,0.8
		c1.8,0.5,2.6-0.5,3.7,0.1c0.7,0.4,1,1.3,1.3,1.8c0.1,0.4,0.2,0.6,0.6,1.7c0.3,0.8,0.4,1,0.6,1.1c0.3,0.3,0.5,0.2,1.4,0.5
		c1,0.3,1.8,0.7,1.8,0.7c0.6,1.1,0.8,2,0.9,2.6c0.1,0.7,0.3,2.7,0.2,2.1c0.5,0.1,1.2,0.4,2.2,0.7c1.8,0.6,2.3,0.8,2.6,1.3
		c0.3,0.5,0.1,0.7,0.5,1.4c0.5,0.8,1,0.7,1.7,1.4c1,0.9,1.4,2.4,1.4,3.5c0,0.7-0.2,1,0,1.6c0.1,0.2,0.3,1.1,1,1.5
		c0.7,0.4,1,0,1.9,0.3c0.6,0.3,1,0.7,1.1,0.8c0.4,0.4,0.4,0.6,1,1.8c0.6,1,0.7,1.1,0.8,1.1c0.5,0,0.6-1,1.5-1.7
		c1-0.8,1.6-0.3,3.4-0.9c2-0.7,2.3-1.9,3.7-1.7c1,0.1,1.6,0.8,1.8,1c0.7,0.7,0.6,1.2,1.4,3.5c0.1,0.3,0.4,1.2,0.9,2.4
		c0.3,0.8,0.4,0.8,1,2.3c0.4,0.9,0.6,1.5,1.1,2.6c0.5,1.2,0.8,1.7,0.9,2.2c0.5,1.4,0.5,1.4,0.8,2.2c0.4,0.8,0.4,0.7,1.3,2.3
		c0.8,1.4,0.7,1.4,1.3,2.4c0.6,1,0.7,1,0.9,1.6c0.3,0.7,0.3,1,0.6,1.1c0.4,0.2,0.7-0.2,1.6-0.3c0.4-0.1,1.7-0.4,2.5,0.2
		c0.3,0.3,0.5,0.8,0.8,1.7c0.2,0.7,0.4,1.7,0.5,2.3c0,0.1,0,0.2,0,0.3c0.1,0.3,0.2,0.6,0.6,2.1c0.5,1.8,0.5,1.9,0.7,2.5
		c0.5,1.5,1.1,1.6,2.4,3.5c1.1,1.6,1.8,3.1,2.4,4.6c0.8,1.8,0.6,1.7,1.3,3.1c1,2,1.5,2.3,1.9,3.7c0.4,1.2,0.3,2,0.3,3.5
		c0,3,0.2,3.8,0.2,5.4c0,0.6,0,1.1,0,1.5c0,4.5,0,6.7-0.3,8.3c-0.2,0.9-0.5,2.2-1.2,3.7c0.5,3.5,0,5.6-0.5,7c-0.2,0.6-0.8,2-0.5,3.7
		c0.1,0.4,0.3,0.8,0.6,1.5c0.7,1.6,1,1.7,1.2,2.3c0.4,1.2-0.3,1.8-1.1,4.8c-0.4,1.6-0.7,2.4-0.8,3c-0.5,2.3-0.1,3.1-0.1,7.7
		c0,1.3,0,2.8-0.1,5.7c-0.1,2.7-0.1,3.2-0.1,4.7c0,2.8,0.2,3,0.1,4.8c-0.1,3.4-0.7,3.7-0.7,5.9c0,2.7,0.9,2.5,1.8,7.1
		c0.4,1.7,0.3,1.8,1.1,8.5c0.5,3.3,0.4,2.8,0.5,3.3c0.1,1.2,0.1,1.3,0.2,1.6c0.8,1.5,4.7,0.9,6.3,0.7c2.1-0.3,10.8-1.6,18-1
		c4,0.3,4.1,0.9,7.8,0.9c3,0,5-0.3,8,0.6c1.1,0.4,2,0.8,3.3,1.4c2.8,1.3,2.1,1.4,4.8,3c0.2,0.1,0.6,0.4,0.9,0.9
		c0.1,0.1,0.4,0.8,0.1,1.4c-0.2,0.4-0.7,0.5-1.6,0.6c-2,0-3.6-0.8-4.1-1c-2-1-3.7-1.3-6.7-1.8c-2.9-0.5-3.1-0.1-6.6-0.3
		c0,0-0.4,0-0.9,0.1c-0.6,0.1-1.1,0.1-1.3,0.1c-1,0.1-1.9-0.3-2.4-0.5c-2-0.7-4.4-1.1-4.5-0.9c-0.1,0.3,2.8,1.2,8.8,3.5
		c1.8,0.7,3.7,1.5,3.7,1.5c0.3,0.1,0.7,0.3,0.9,0.4c4.1,1.7,7.8,4.5,7.8,4.5c1.2,0.8,2.1,1.7,2.9,2.4c0.3,0.4,1,1.1,2.3,2.6
		c1.5,1.8,1.9,2.3,1.7,2.7c-0.2,0.6-1.1,0.8-1.3,0.8c-1.8,0.4-3.4-1.1-5.1-2.5c-2.9-2.3-5.6-3.5-7.5-4.3c-2.1-0.9-1.7-0.5-7.2-2.6
		c-1.5-0.6-2.5-1-4.2-1.6c-3.1-1.1-4.5-1.5-4.5-1.5c0,0,2.5,0.3,5.1,1.7c0.9,0.5,1.5,1,3.6,3c2.4,2.2,3.6,3.4,5.7,5.5
		c1.6,1.6,3.1,3.3,4.7,4.9c0.9,0.9,2.3,2.3,2.1,3.5c-0.1,0.4-0.6,1.6-0.6,1.6c-2-0.5-3.5-1.3-4.5-1.8c-2.2-1.3-3.6-2.8-4.6-3.9
		c-0.8-0.9-0.5-0.7-2.4-3c-1.6-2-2.7-3.1-4.3-3.8c-0.2-0.1-0.5-0.2-1-0.3c0,0-1.3-0.4-4.4-1.2c3.3,0.8,4.9,2.3,5.6,3.1
		c1,1.1,1.8,2.5,1.8,2.6c0.6,1.1,0.6,1.5,1.6,3.3c0.5,0.9,0.8,1.5,1,1.8c0.6,1,0.7,0.9,1.1,1.7c0.3,0.3,0.4,0.6,0.4,0.7
		c0.1,0.3,0.6,1.2,1.2,2.5c-0.5,0.5-1.4,1.2-2.4,1c-1.2-0.2-1.8-1.3-2.4-2.3c-0.3-0.4-2.5-4-4.9-6.2c-2.6-2.3-5.7-3.1-6.7-3.3
		c-1.5-0.3-2.9-0.4-3.7-0.5c-2.2-0.1-3,0.1-5.8,0c-0.3,0-1.5-0.1-3-0.4c-0.3-0.1-1.4-0.3-1.4-0.4c0-0.2,8.3,0.7,8.2,0.9
		c0,0.2-8.3-0.6-10.4-1.6c-0.2-0.1-0.8-0.4-1.6-0.7c-0.8-0.3-1-0.3-1.7-0.6c0,0-0.2-0.1-1.5-0.7c0.2-2,0.2-3.3,0.1-4.2
		c0-0.3-0.1-0.9,0-1.7c0.1-0.7,0.2-1.3,0.5-2.1c0.6-1.8,1.6-2.9,2.7-5c1.4-2.6,1.9-4.3,2.5-4.2c0.3,0,0.5,0.3,0.4,0.5
		c-0.2,0.4-2.4-0.9-5.5-0.5c-0.9,0.1-1.5,0.3-2.4,0.1c-0.8-0.2-0.8-0.4-2.1-0.9c-1.6-0.7-1.8-0.5-3.2-1.1c0,0-0.1,0-1.7-0.9
		c0,0-0.9,0.3-1.5,0.7c-0.7,0.5-1.1,1.3-1.3,1.5c0,0-0.1,0.1-0.2,0.2c-1,0.8-20.3-8.2-22.8-9.3c-11.6-6.2-15.7-8.3-16.3-8.5
		c-0.7-0.3-0.8-0.3-1.9-0.9c-1.3-0.8-2.2-1.3-3.7-1.7c-1.9-0.5-2.9-0.2-3.3-1c-0.4-0.6,0.1-1.3,0.6-3.6c0.3-1.4,0.3-2,0.5-3
		c1.2-8,4.6-21.4,4.6-21.4c2.3-9,5.1-21.2,7.4-31c0.7-2.9,2.1-8.8,4.6-13.8c1.4-2.7,3.2-5.5,4.3-8.1c0.1-0.3,0.5-1.3,1.4-2.4
		c0.9-1.2,1.8-2,1.8-1.9c0,0-1.1,1.1-1.8,1.9c-2.2,2.5-3.4,5.2-5.7,10.5c-1.9,4.4-0.9,2.8-3.1,8.1c-1,2.4-1.6,3.7-1.5,5.8
		c0.1,1.2,0.4,1.8,1.4,4.5c2.2,5.8,2.4,7.5,3.2,7.5c0.9,0,1.5-2,2.5-4.7c3.1-8.1,4.2-7.3,7.7-16.5c1.1-2.9,1.7-5,2.6-7.9
		c0.9-2.9,1.3-4.3,1.4-5.3c0.1-2.8-1-3.8-3.7-9.6c-2.5-5.5-3.8-8.3-4.1-10.3c-0.1-1-0.5-3.4-1.9-5.9c-0.8-1.3-1.4-2-2.1-2.4
		c-0.8-0.6-1.7-0.8-2-0.9c-0.8-0.2-1.5-0.3-1.9-0.3c-3.7-0.1-8.9,0.8-8.9,0.8c-0.7,0.1-2.7,0.5-6.5,1.4c-0.7,0.2-2.1,0.5-3.7,1.3
		c-1.6,0.8-2.3,1.6-2.6,2.2c-0.4,0.7-0.5,1.3-0.6,1.6c-0.5,2.3-1.1,2.8-2.1,5.8c-1.2,3.9-0.4,4.1-1.7,8.1c-0.4,1.1-0.6,1.7-1.1,3.4
		c0,0-0.6,2.1-1.1,4.2c-1.8,7.7-13,89.2-13,89.2c-0.2,1.4-0.5,3.5-0.9,6.1c0,0.5,0.1,1.1,0.5,1.8c0.4,0.8,1,1.3,1.8,1.9
		c2,1.5,3.1,2.2,3.1,2.2c1.5,0.9,2.9,1.7,4.9,2.6c2.4,1.1,4,1.5,7.3,2.5c6,1.8,5.4,1.7,8.6,2.6c13.1,3.8,20.5,5.9,30.2,7.8
		c0,0,0,0,12,2.2c0.7,0.4,1.5,0.7,1.9,0.3c0.6-0.4,0.2-1.5,0.2-3.1c0.1-1.5,0.5-1.9,1.5-4.5c1.1-3,0.7-2.9,1.7-5.5
		c1.3-3.4,2-5.1,3.3-5.4c0.5-0.1,0.7,0.1,4.9,2.1c1.7,0.8,1.8,0.9,2.1,0.9c0.7,0.2,1.6,0.3,5-0.1c1.8-0.2,2.3-0.3,2.4,0
		c0.4,0.6-1,2-2.5,4.2c-1.3,2-2.8,4.3-3.2,7.1c-0.4,2.5,0.2,4.9-0.7,7.4c-0.1,0.4-0.4,1.2-1,1.5c-0.7,0.4-1.5,0-2.4-0.3
		c-0.7-0.2-2-0.2-4.4-0.2c-4,0-4.9,0.7-5.7-0.1c-0.9-1-0.2-3-1.1-3.4c-0.2-0.1-0.3,0-0.9,0.1c-1.1,0.2-1.9-0.1-2.2,0
		c-2,0.5-4.4,1.1-7.6,1.9c-4.8,0.3-13.4,1.1-18.6,4.3c-2.8,1.7-4.2,2.7-4.2,2.7c-2.2,1.6-4.5,3.1-6.6,4.8c-0.8,0.6-1.4,1-2.2,1.1
		c-1.8,0.2-3.3-1.4-4.2-2.3c-0.7-0.7-3.2-2.3-8.2-5.6c-1.9-1.2-5.3-2.6-12-5.5c0,0-6.2-2.6-8.5-1.6c-0.3,0.1-1,0.5-2.2,0.6
		c-0.8,0-1-0.2-1.3,0c-0.5,0.4,0.1,1.6,0.5,4.3c0.2,1.3,0.1,1.4,0,1.5c-0.5,0.3-2.1-2.2-4.8-4.7c-2.2-2.1-4.3-3.2-5.7-4
		c0,0-1.5-0.8-8.2-3.5c2.8-1.9,4.9-3.5,6.3-4.5c5.3-3.8,16.7-12.1,19.2-12.7c0.1,0,0.5-0.1,0.8-0.4c0.6-0.6,0.4-1.5,0.5-2.8
		c0-0.8,0.2-1.7,0.4-2.5c3.8-29.4,5.7-44.1,6.3-45.4c0.2-0.4,1.1-2.1,0.5-3.2c-0.4-0.6-1.1-1-1.7-1.3c-0.8-0.4-1-0.3-1.7-0.7
		c-0.7-0.4-1-0.9-1.4-1.3c-0.8-0.8-1.8-1.4-3.9-2.4c-1.4-0.7-2.1-1-2.9-1.3c-1.4-0.4-2.6-0.4-4.2-0.3c-1,0-1.8,0.1-3.2,0.2
		c-1.9,0.2-2.9,0.3-3.8,0.5c-4,0.8-6.7,2.9-7.2,3.3c-1,0.8-1.7,1.6-2.5,2.5c-1,1.1-2,2.3-3,4.1c-0.7,1.4-1.1,2.6-1.5,4
		c-0.3,1-0.6,2.1-0.8,3.5c-0.1,0.7-0.5,3.9,0.7,7.9c0.5,1.6,1,2.6,1.5,3.8c0.7,1.5,1.8,3.8,3.8,6.2c1.1,1.3,3.3,3.9,5.4,5.3
		c0.2,0.1,1.1,0.7,1.7,1.7c0.4,0.6,0.7,1.1,0.6,1.6c-0.3,1.1-2.8,0.4-6.3,1.6c-1,0.4-2.8,1-4.3,2.5c-1.5,1.5-1.3,2.3-2.3,2.6
		c-2.1,0.7-3.6-2.8-6.4-2.6c-1.1,0.1-1.3,0.7-5.8,4.9c-3.4,3.2-3.8,3.4-4.8,4.8c-1.1,1.6-1.8,3.2-2.5,4.8c0,0-0.3,0.6-1.7,4.1
		c-3.8-1.3-14.5-4.8-17-1.3c-0.1,0.1-0.6,1.9-1.5,5.4c-0.8,3.1-1.1,4.2-1.3,5.8c-0.1,1.2-0.1,2.2,0,4c0.3,4.6,0.4,6.9,1,10.1
		c0.8,4,1.9,6.9,2.6,8.7c0.6,1.4,1.3,2.9,2.7,5.9c0.1,0.1,0.2,0.4,0.4,0.8c0.7,1.1,1.4,1.9,1.7,2.2c3.6,3.5,4.7,5.3,7.9,7
		c1.8,1,3.3,1.8,4.5,1.1c1.2-0.7,1.5-2.5,1.6-3.3c0.1-0.5,0.2-1.2,0-2c0-0.2-0.2-0.5-0.9-1.5c-0.4-0.5-0.8-1-1.1-1.5
		c-1-1.2-1.9-1.4-2.9-2.2c-0.9-0.7-1.4-1.5-2.5-3.1c-1.4-2.1-2.1-3.9-3-6.1c-0.4-0.9-0.6-1.5-1.1-2.9c-0.5-1.3-0.5-1.5-0.6-1.8
		c-0.2-0.9-0.2-1.7-0.2-2.9c0-0.1,0-0.1,0-1.5c0-1.2-0.1-1.4,0-1.6c0.5-0.9,2.9-0.5,3.1-0.5c2.3,0.4,4.2,1.9,6.1,3.9
		c3.3,3.5,5.1,7,6.1,9.3c1.5,3.2,1,3,2.9,8.1c1.2,3.1,3,7.9,6.2,13.4c1.9,3.2,2,2.9,3,4.9c1.6,3.4,2.2,6.3,4.1,8.2
		c0.5,0.5,0.8,0.6,2.1,1.8c1.1,1,1.5,1.5,1.8,1.4c0.4-0.1,0.4-1,0.3-1.8c0-1.6,0.1-3.2,0.1-4.8c0-0.4,0-3,1-5.8
		c0.2-0.5,1.1-2.9,3.2-5.3c0.4-0.5,2.4-2.6,5.6-4.2c1-0.5,2.3-1.1,4-1.4c3-0.5,5.4,0.1,6.6,0.5c3.8,1.1,6.4,3.4,8.7,5.4
		c0.8,0.7,1.6,1.5,1.6,1.5c0.3,0.3,1.1,1,2.1,2c1.8,1.8,3.2,3.4,5.4,5.8c0.8,0.9,1.1,1.2,1.1,1.2s-1.4-1.7-3.3-3.7
		c-0.1-0.2-0.6-0.7-1.3-1.4c-3-3.1-5.6-5.3-8.1-7.5c-0.3-0.3-1.2-0.5-1-0.8c0,0,9.3,6,16.7,16.4c0.9,1.3,0.7,1,1.3,1.8
		c5.9,7.9,14.4,10.7,22.6,13.4c1,0.3,4.4,1.4,9,2.2c0,0,5.3,0.9,12.2-0.2c0.2,0,1.8-0.3,1.8-0.8c0-0.4-0.8-0.5-0.8-0.9
		c0-0.8,3.5-1.3,3.4-1.5c0-0.1-1.9,0.1-3.4,0.3c-3.1,0.4-3.5,0.4-3.5,0.4c0,0.2,6.9,0.3,11.9,0.1c2.2-0.1,3.4-0.1,5.9-0.1
		c0.6,0,1.5,0,2.7,0c1.5,0,2.2,0.1,3.3,0.1c4.7,0.2,4.1-0.2,7,0c1.6,0.1,2.4,0.3,3.3-0.2c0.6-0.4,1.1-0.9,1.8-1.9
		c0.6-0.8,0.9-1.2,0.8-1.5c-0.2-1-2.7-1.2-3.3-0.9c0,0,0,0,0,0c0.4-0.3,1.5-0.9,2.1-1.3c0.4-0.3,0.5-0.3,0.6-0.3
		c1.5-1-2.2-10-3.6-17.7c-0.7-3.5-0.1-3-0.9-10.8c-0.6-6.3-1.4-11.5-2-14.8c-0.5-1.7-0.8-3.1-1-4c-0.5-3.1-0.6-5.3-0.6-5.3
		c-0.1-1.4-0.1-2.2-0.7-3c-0.5-0.6-1.5-1.2-2-0.9c-0.6,0.3-0.7,1.7-0.1,3.3c0,1.6-0.1,3.8-0.5,6.3c-0.1,0.8-0.6,3.7-1.9,7.5
		c-1.4,4.1-1.8,3.5-3.7,8.8c-1.2,3.3-1.4,4.5-2.7,6.6c-0.4,0.7-1.1,1.7-2,3.4c-0.9,1.5-1.2,2.2-1.7,3.1c-1.5,2.7-3,4.6-3.4,5.1
		c-1.5,2-3.5,6.6-5.7,17.9c6.2,0.1,11,0.3,14.3,0.4c3.4,0.1,6.9-0.3,10.3,0.1c2.8,0.3,5.3,0.9,6.5-0.5c0.7-0.9,1.1-2.7,1.4-3.9
		c0,0,0.4-1.9,1.3-2.5c0.1-0.1,0.3-0.2,0.4-0.2c0.1,0,0.5-0.3,0.5-0.3c2.5-1.5,3.4-2,3.4-2c1.5-0.8,2-1.1,3.1-1.8
		c1.4-0.9,1.3-0.9,2.3-1.5c1.7-1,2.2-1.1,3.8-2.1c0.9-0.5,1.5-1,2.1-1.4c6-4.3,10.2-10,11-12.5c0.3-0.8,0.2-1.3,0-1.6
		c-0.2-0.3-0.4-0.5-1.8-1c-1-0.4-1.7-0.6-1.8-0.7c-0.9-0.3-1.5-0.5-2.4-0.8c0,0-0.4-0.1-2.4-0.7c0,0,4.8-5,4.8-5
		c0.4-0.5,0.9-1,1.3-1.4c1.1-1.1,1.5-1.4,2.1-2.2c0.3-0.5,0.3-0.6,0.7-1c0.6-0.7,1-1,1.4-1.4c0.9-0.9,1.8-2.6,1.3-3.4
		c-0.3-0.4-0.6-0.2-1.6-0.8c-1.2-0.7-1.4-1.4-1.9-1.3c-0.4,0.1-0.4,0.6-1,1.3c0,0.1-1.1,1.5-2.1,1.6c-1.1,0.1-1.8-1.4-3.2-3.6
		c-1.4-2.1-3-3.9-4.1-4.9c-2.2-2.1-4.7-2.8-6.7-3.3c-6.3-1.7-7.5,0.9-12.5-0.9c-3.9-1.4-6.1-1.7-7.4-2.6c-0.2-0.2-0.6-0.4-1-0.3
		c-0.9,0.3-0.5,2.2-1.6,2.8c-0.5,0.3-1.1,0.1-2.1,0c-2.3-0.4-4.1-0.4-6.2-0.3c-3,0-3.5,0.5-4.1-0.1c-1.1-1.1,0-3.1-1.3-4.2
		c-0.5-0.4-1.4-0.6-1.9-0.3c-0.6,0.3-0.8,1-0.9,1.1c-1.4,2.7-7.2,2-11.2,2.1c-7.1,0.2-12.6,2.8-15.1,4c-5.1,2.5-8.3,5.6-8.3,5.6
		c0,0,20.3-16.1,20.7-15.7c0.1,0.1-1.1,1.5-1.5,1.3c-0.3-0.2,0.2-0.9,0-1.6c-0.5-1.3-3.3-0.9-9-1.6c-0.4,0-0.9-0.1-1.6-0.2
		c-2.1-0.5-3.5-1.5-4-1.8c-2.9-1.9-4.5,0-8.7-1.7c-3.6-1.4-5.8-4-7.3-3c-0.2,0.1-0.6,0.5-1.3,0.9c-1.1,0.6-2.1,0.8-2.4,0.8
		c-2.4,0.4-11.5,3.6-17.9,6.6c-4.8,2.3-8.2,4.7-8.2,4.7c0,0,2.7-1.9,6.3-3.8c0.4-0.2,7.1-3.7,14.6-6c1.9-0.6,2.3-0.6,3.5-1.1
		c3-1.3,4.3-2.8,6-2.3c0.7,0.2,1.1,0.6,1.3,0.8c2.9,2.7,9.6,3.4,15.4,4.4c3.8,0.7,6.3,1.5,10.5,2.7c6.9,2,10.7,3.7,16,3.1
		c2.3-0.3,4.1-0.8,5.2-2.2c0.6-0.7,0.4-1,1.5-4.5c1.1-3.5,1.6-5.3,1.7-5.5c0.6-1.7,1-2.7,0.6-3.2c-0.3-0.4-0.8-0.1-2.1-0.2
		c-1.3-0.1-1.6-0.5-3.8-1c-1.5-0.4-1.9-0.1-2.1-0.4c-0.4-0.7,0.9-1.8,2.7-4.3c0.7-1,1.4-2,2.7-4.1c0,0,1.5-2.4,3.2-5.5
		c3.2-6,6.2-15.9,8.3-22.9c2.4-7.9,3.6-11.9,4-13.5c2.3-10,2.6-15.1,2.6-17.7c0-1.4-0.1-4.4,1.2-4.8c0.9-0.4,2.1,0.9,3,1.7
		c2.3,2,3.7,1.7,11,3.7c9,2.5,11.1,4,15.9,3.5c2-0.2,3.4-0.7,4.3-1.7c0.4-0.4,1.4-1.6,1.7-6.9c0.1-1.9,0.2-3.3,0-5.3
		c-2.2-22-11.4-48.9-11.4-48.9c-5.9-17.2-7-17.7-7.9-23.8c-1-6.5-3.2-12.9-3.8-19.4c0-0.2-0.1-1.5-0.8-3.1c-1.4-3.2-4.5-5.8-5.6-5.1
		c-0.3,0.2-0.4,0.7-0.6,1.8c-0.3,1.7,0.1,2.2-0.2,3.7c-0.2,0.9-0.4,1.5-0.6,1.8c-0.4,1.1-1.1,2.1-1.3,2.1c-0.2-0.1,0.5-1.4,0.7-3.5
		c0-0.3,0.1-1.2,0-2.3c-0.1-1.7-0.6-3-1.3-4.5c-2.2-5.4-2.1-4.9-2.3-5.5c-0.2-0.6-0.8-2.9-1.6-6.1c-0.3-1.3-0.4-1.9-0.8-1.9
		c-0.6-0.1-1.1,1.6-3.2,5.1c-0.3,0.6-1.1,1.8-2.2,3.3c-0.4,0.5-0.9,1.2-1.5,2c-1.4,1.6-2.8,3-2.9,2.9c-0.1-0.1,1.2-1.4,2.7-3.8
		c0.7-1.1,1.3-2.1,1.6-2.7c0,0,0.5-1,1-2.1c1.8-3.8,2.1-11.8,3.5-18.2c0.2-1,0.7-3.1,0.5-5.4c0-0.4-0.2-1.5-0.4-2.8
		c0-0.3-0.2-1.1-0.5-2.3c-0.5-2.2-0.8-3.5-1.4-5c-0.4-1-1-2.5-1.1-2.4c-0.2,0.1,0.8,2.5,1.4,6.4c0.2,1.1,0.5,3.4,0.3,5.6
		c0,0.3-0.1,0.9-0.1,1.8c-0.1,1.4-0.1,2.1-0.1,2.7c0,2,0.2,2.3-0.1,3c-0.3,0.5-0.4,0.5-0.9,1.5c-0.2,0.5-0.5,1-0.6,1.6
		c0,0,0,0.1,0,0.2c-0.3,1.3-0.1,2-0.2,2.1c-0.3,0.1-1.5-2.6-2.1-4.2c0-0.1-0.1-0.4-0.3-0.9c-0.3-0.7-0.5-1.1-0.9-1.6
		c-0.4-0.4-0.9-0.8-0.9-0.8c1.4,1.8,1.4,2.8,1.1,3.4c-0.2,0.5-0.5,0.6-1.4,1.8c-0.6,0.8-0.8,1.2-0.8,1.5c0.1,0.7,1.2,0.6,2,1.7
		c0.1,0.2,0.8,1,0.6,1.9c-0.2,1.1-1.4,1.7-2.2,1.8c-0.5,0.1-0.8,0-1.8-0.1c-2.6-0.3-2.5,0-3.3-0.3c-1.5-0.6-2.9-2.5-2.6-4.1
		c0,0,0,0,0-0.1c0.4-2.6,0.1-3.2,0.6-4.2c0.1-0.3,0.3-0.5,0.7-1c0.3-0.4,0.5-0.7,0.9-1.1c0.8-0.8,1.7-1.5,1.7-1.5
		c0.4-0.4,1.2-1.1,2.4-1.4c1-0.3,1.9-0.2,2.3-0.1c0.2,0,1,0.2,1.9,0.6c1.2,0.6,1.6,1.3,1.7,1.2c0.2-0.2-1-2.2-1.9-3.9
		c-2.3-4.2-1.6-4.1-3.3-6.9c-0.9-1.5-2.7-4-3.9-5.7c0-0.1-0.1-0.1-0.1-0.2c-1.1-1.6-1.2-1.8-1.3-1.8c-0.4,0.1,0.3,6.6,1.8,13.1
		c0.1,0.6,0.6,2.3,0,4.3c-0.5,1.6-1.5,3.3-2.3,3.2c-0.5-0.1-0.8-1.2-0.9-1.9c-0.5-2.7,0.2-4.3,0.5-7.1c0.1-0.8,0-2.5-0.1-5.8
		c-0.1-3.5-0.3-5.9-0.3-5.9s0.2,2.5,0.3,5.9c0.1,3,0.2,4.6,0.1,5.8c-0.1,1.8-0.3,5.8-2.3,10c-0.8,1.6-2.1,3.3-4.7,6.7
		c0,0-1.5,2-4.7,5.3c-0.5,0.5-1.4,1.4-1.5,1.3c-0.2-0.2,1.4-2.4,1.9-3.4c0-0.1,0.3-0.5,0.6-1c0-0.1,0.1-0.1,0.1-0.1c0,0,0,0,0,0
		c0.7-1,1-2.9,1-2.9c0.2-1.2,0.6-0.9,1.5-3.2c0.2-0.6,0.5-1.5,1.1-3.4c0.5-1.5,0.8-2.7,0.8-2.7c0,0-0.7,4.5-3.4,9.3
		c-2,3.3-2.8,2.9-4.9,6.7c-0.4,0.6-1,1.8-1.5,1.7c-0.5-0.1-0.5-1.5-0.6-2.5c-0.1-6.6,1.3-11.5,0-12.1c0,0-0.1-0.1-0.3-0.1
		c-0.1,0.1-0.1,0.3-0.2,0.4c-0.3,0.6-0.7,1-1,1.3c-1.8,1.4-2.3,1.8-2.3,1.8c0,0,3.5-3.1,4.3-2.5c0.1,0.1,0.1,0.6,0,1.6
		c-0.1,0.9-0.1,1.3-0.2,1.6c-0.4,1.4-1.6,2.1-2.5,2.7c-0.4,0.2-0.7,0.3-1,0.3c0,0-0.1,0-0.3,0c-0.6-0.2-1-1-1.1-1.1
		c-0.1-0.1-1-1-2.3-1.3c0,0-0.1,0-1.7-0.1c-0.9,0-1.7,0-2.3,0c-1.5,0.1-2.2,0.1-3.1,0.5c-0.5,0.2-0.9,0.4-1.6,0.9
		c-0.8,0.5-0.7,0.5-2.2,1.7c-0.8,0.6-1,0.8-1.3,1.2c-0.4,0.7-0.3,1.4-0.3,1.5c0.1,0.9,0.6,1.5,0.8,1.7c0.1,0.5,0.2,0.9,0.3,1.4
		c0,0,0.5,0.8,1.1,1.5c0.2,0.2,0.4,0.5,0.8,0.9c0.2,0.3,0.6,0.7,1.2,1.1c0.2,0.1,0.6,0.3,1.3,0.4c1,0.2,1.4-0.1,2.7-0.3
		c2-0.3,2.6,0.3,3.3-0.3c0.7-0.6,0.7-1.5,0.7-1.6c0-1.7-2.1-2.1-2.1-3.6c0-1.4,2-1.9,1.9-3.4c-0.1-0.5-0.3-0.5-0.8-1.9
		c-0.4-1.2-0.3-1.4-0.2-1.5c0.3-0.3,1.1-0.1,1.7,0.1c0.8,0.2,0.9,0.4,1.2,0.4c0.9,0,1.3-2.1,2-4.5c1.3-4,2-4.1,1.9-5.8
		c-0.1-2.6-1.6-4.6-1.7-4.6c-0.1,0,1.9,4.8,1.8,4.8c-0.2,0.1-3.7-12-6.1-11.7c-1,0.1-0.9,2.3-2.3,7c-0.6,2.3-2.4,7.7-5.5,12.9
		c-2.8,4.8-3.8,4.2-6.1,8.8c-2,3.9-2.5,6.8-3,9.4c-0.8,4.3-0.4,5.9-0.1,6.7c0.2,0.5,0.9,1.8,2.1,3c0.4,0.4,0.9,0.9,1.5,1.3
		c3.8,2.8,12.8,6.7,14.6,7.4c3.3,1.3,5.1,1.8,5.7,2.1c0.2,0.1,0.4,0.1,0.7,0.2c4.5,1.3,7.5,1.8,8.1,1.9c3.3,0.5,4,0.4,4.5,0.2
		c1.2-0.4,1.9-1,3.1-2.1c1.8-1.6,3-3.2,5.3-6.5c1-1.5,0.7-1.1,1.9-2.8c0.9-1.3,1.4-1.8,1.3-1.9c-0.2-0.2-1.4,1.3-3.7,2.5
		c-2.5,1.3-4.7,1.4-5.7,1.5c-1.5,0.1-2.3-0.2-2.5-0.2c-1.1-0.4-2.1-1.1-2.5-1.4c-0.7-0.5-0.9-0.8-1.2-0.9c-0.1,0-0.2,0-0.3-0.1
		c-0.2-0.3,0.4-0.9,0.2-1.2c-0.1-0.2-0.7-0.3-2.5,0.2c-0.1,0-0.2,0-0.4-0.1c-0.3,0-0.8-0.1-1.8-0.1c0.5,0.1,1.3,0.2,2.2,0.2
		c0.9,0,4.1,0,7.6-1.7c2.3-1.2,3.7-2.5,3.8-2.5c0,0-1.5,1.4-3.8,2.5c-2,1-3.8,1.4-5,1.6c-0.1,0.2-0.4,0.7-0.2,1.2
		c0.2,0.5,0.8,0.7,1.5,1c1,0.4,1.9,0.4,2.1,0.5c2.8,0.1,4.1,0.2,4.8,0.1c2-0.3,3.5-1.5,6.3-3.8c3.4-2.8,5.1-4.1,5.5-5.9
		c0.4-2-0.3-2.1,0.3-5.6c0.1-0.6,0.5-2.7,1.8-5.1c0.8-1.6,1.4-2.7,2-2.6c0.5,0.1,0.7,1,2,6.6c0.4,1.7,0.7,2.9,0.7,4.7
		c0,2-0.3,2.9-0.4,3.3c-0.5,1.3-1.1,2-1,2.1c0.2,0.1,1.1-0.7,1.8-1.5c1.1-1.2,1.1-1.7,1.5-1.7c0.8,0.1,1.2,3.5,1.3,4.9
		c0,0.6,0,1,0,1.3c0,1.2-0.1,1.8-0.3,2.3c-0.3,0.6-0.6,0.5-1.8,1.6c-0.8,0.8-1,1.2-1.4,1.1c-0.5-0.1-0.8-1.1-0.8-1.1
		c-0.1-0.4,0-0.5,0-1.4c0-0.8,0-0.7,0-1.5c0-1.1,0.1-1.3,0-1.8c0-0.1-0.3-1-0.6-1c-0.3,0-0.3,0.7-0.9,1.9c-0.5,1.1-0.7,1.1-1,2.1
		c-0.2,0.6-0.2,0.7-0.5,1.5c-0.2,0.6-0.4,1-0.7,1.5c-0.3,0.5-0.8,0.8-1.6,1.5c-0.6,0.4-0.6,0.5-0.7,0.5c0,0,0,0,0,0
		c-0.1-0.1,0.4-1.1,0.8-2.2c0.5-1.4,0.6-2.6,0.7-3.4c0-0.2,0-0.6,0.1-1.5c0.1-1,0.1-1.2,0.1-1.3c0.1-1.3,0.1-2-0.1-2.1
		c-0.4-0.2-1.2,1.5-3.1,3.7c-1.4,1.7-2.7,2.9-2.7,2.9c0,0,0.8-0.9,1.7-1.8c1-1,1.1-1.1,1.5-1.5c1.9-2,2.3-3.4,2.7-3.3
		c0.2,0.1,0.4,0.7,0,3.4c0,0.3,0,0.6-0.1,1.1c0,0.2,0,0.3,0,0.3c-0.4,4.5-1.9,6-2.1,6.2c0,0-0.2,0.1-0.3,0.3c0,0-0.1,0.1-0.1,0.2
		c-0.3,0.5-0.2,1.1-0.1,2.3c0.1,1.2,0.2,1.2,0.2,2.1c0,0.9-0.1,1.9-0.1,1.9c-0.8-4.8-1.4-6.4-1.4-6.4c-0.7-2.6-1.3-3.3-1.8-3.3
		c-0.4,0-1.3,0.4-1.4,0.5c-0.3,0.3-0.7,0.8-0.8,1.5c-0.1,0.3-0.1,0.5,0,1.3c0.1,1.8,0.3,1.8,0.2,2.4c-0.1,1-0.5,1-0.6,1.9
		c0,0.3,0,0.8,0.5,2.1c0.5,1.2,0.8,1.5,1.4,2.6c0.8,1.6,0.5,1.8,1.4,3.5c0.6,1.2,0.9,1.9,1.5,2.4c1,1,1.7,0.7,3.5,1.7
		c0.8,0.4,0.5,0.4,2.5,1.8c1.7,1.2,1.9,1.2,3.3,2.3c1.5,1.1,2.3,1.7,2.9,2.4c0.7,0.9,1.1,1.8,1.5,3c2.2,7.3,4.2,21.5,4.2,21.5
		c1,6.7,1.2,5.1,1.6,9.1c0.6,6.2,0.9,18.1,1.6,21.7c0.3,1.7,0.8,3,0.8,3c0.2,0.6,0.3,0.8,0.9,2.3c0.3,0.6,0.8,2,0.8,2.1
		c0,0-1.2-2.3-2-5.1c-1-3.7-0.1-4.4-1-6.2c-1-2-2.5-1.7-7.1-4.4c-4.5-2.6-8-6.3-8.5-6.7c-1.7-1.7-2.7-2.5-4.7-4.1
		c0,0-2.2-1.8-2.4-1.6c-0.1,0.1,0.3,0.4,0.4,0.9c0.1,0.6-0.1,1.2-0.2,1.4c-0.6,1.3,0.5,3.3,1.3,7.1c0.3,1.5,0.1,1.2,0.5,3.1
		c0.4,2.3,0.7,3.1,0.9,4.8c0,0,0.2,1.6,0.1,3.2c-0.1,3.5-2,6.3-3,8c0,0-2.5,4-5.6,10.6c-3.3,7-3.7,10.5-7.7,14.2
		c-0.4,0.4-1,0.9-2.2,1.8c-6.2,5.1-6.5,4.4-7.9,6.3c-0.3,0.4-1,1.4-1.5,1.3c-0.3-0.1-0.4-0.6-0.7-1.5c-0.3-0.8-0.5-1.1-0.9-1.9
		c-1.4-2.9-4.9-12.3-5.8-14.6c0-0.1-0.6-1.6-0.6-1.6c1.1-1,2.1-1.6,2.9-2.1c0.3-0.2,0.5-0.3,1.8-1c1-0.6,1.7-1,1.8-1
		c2.8-1.6,18.8-7.9,22.2-10.2c0.1-0.1,2.1-1.4,2.1-1.4c0.5-0.3,1.1-0.6,1.6-0.9c0.4-0.5,1.1-1.4,1.3-2.3c0-0.1,0.1-0.5,0.1-0.9
		c0-0.4,0-0.6,0-1.1c0-1.3,0-1.5,0-1.5c-0.1,0,0,1.8-0.6,3.3c-1,3-4.1,4.6-6.7,5.9c-2.7,1.4-3.5,1.1-5.3,2.5c-0.3,0.2-1,0.7-1.2,0.5
		s0-0.9,0.5-2.4c0.2-0.8,0.4-1.6,0.6-2.4c0.6-2.3,0.5-4.3,0.7-6.6c0.2-2.1,0.6-3.7,1.4-6.7c0.6-2.5,1.2-4.8,2.5-7.8
		c1.5-3.6,1.9-2.9,2.6-5.3c0.3-0.9,0.7-2.3,1.4-2.4c0.5,0,0.7,0.6,1.6,0.9s1.8-0.2,1.8-0.2c0.4,0-1.5,0.3-1.8,0.2
		c-0.4-0.1-0.8-0.2-1.6-0.9c-1.4-1.1-2.2-2.2-2.4-2.4c-0.8-1-0.6-1.1-1.3-1.8c-0.9-1-1.6-1.4-1.5-1.7c0.1-0.2,0.5-0.2,1.5-0.5
		c1-0.3,1.6-0.4,1.7-0.7c0.2-0.7-4.1-2.5-5.1-2.9c-5.6-2.2-7.5-2.2-10.8-4.1c-2-1.2-3.4-2.5-3.4-2.5c-1.4-1.2-2.4-2.4-2.4-2.4
		c-0.5-0.6-1.2-1.2-1.7-1.8c-0.3-0.4-0.6-0.7-1-0.9c-0.7-0.4-1.3-0.3-1.6-0.3c-6.1,0.1-5.9-0.7-14.3,0.4c0,0-3.2,0.5-7.9,1.5
		c-4.4,1-5.6,1.5-6.5,2.7c-0.2,0.3-0.3,0.5-1.9,4.4c-0.8,1.9-1.1,2.9-1.3,3.1c-1.8,4.6-1.9,7-3.4,11.2c-0.6,1.7-0.3,0.5-2.6,5.9
		c-2.6,6.1-4,9.2-4.3,11.3c-0.2,0.8-0.4,1.6-0.9,3.1c-0.4,1-0.6,1.6-0.8,1.6c-0.1,0-0.2-0.3-0.6-1.7c-0.2-0.6-0.3-0.9-0.3-1.1
		c-0.3-0.8-0.6-1.2-1-1.7c-0.4-0.5-0.7-1.1-1.4-2.3c-0.9-1.6-1.5-3-1.6-3.3c-0.8-2-0.4-2-1.3-4.1c-0.6-1.5-0.8-1.6-1.6-3.8
		c-0.3-0.7-0.4-1-0.8-2.2c-0.6-1.7-0.7-1.8-1-2.6c-0.8-2.1-0.4-1.9-1.3-4.3c-0.3-0.8-0.6-1.6-0.7-2.9c0-0.5-0.1-0.8,0-1.3
		c0.1-0.6,0.3-1.4,1.5-2.7c0.7-0.8,1.4-1.4,2.2-2.1c3-2.4,3.2-2.1,4.1-3.2c1.3-1.6,0.8-2.2,2.2-3.3c0.8-0.6,1.3-0.7,2.3-1.7
		c0.5-0.4,1-0.9,1.5-1.7c0.8-1.2,0.5-1.7,1.1-3.9c0.3-0.8,0.6-1.6,1.3-3.1c0.6-1.5,1-2.2,1.4-3c0.5-1,0.8-1.4,1-2.3
		c0.2-0.8,0-0.9,0.2-1.8c0.3-1.5,0.9-2.5,1.3-3.3c0.4-0.7,0.8-1.2,1-1.6c0.6-0.8,0.9-1.2,1.3-1.4c1-0.7,2.5-0.8,2.7-0.3
		c0,0,0.1,0.2-1.3,1.9c0.4,0.9,0.9,1.4,1.3,1.7c0.3,0.3,1,0.7,2.3,1.5c1.1,0.6,1.3,0.8,1.6,0.9c0.9,0.4,1.6,0.6,1.7,0.7
		c2,0.6,6.3,3.6,7.7,4.5c1.1,0.7,0.7,0.3,10.2,3.2c4.9,1.5,7.3,2.3,9.4,3.1c2.7,1,4,1.5,5,1.9c4.7,2.3,7.9,5.2,9.9,7
		c0.7,0.6,1.8,1.7,3.2,3.3c1.6,1.9,2.9,3.5,2.9,3.5c1.5,1.9,1.9,2.8,2.2,2.7c0.3-0.1,0-1.6-0.6-4.5c-0.1-0.8-0.4-1.9-0.9-4.2
		c-0.3-1.5-0.5-2.2-0.6-3.1c-0.2-1.4-0.4-2.5-0.4-2.7c-0.1-0.8-0.2-1.8-0.3-3c-0.1-1.9,0.1-1.7,0-3.8c-0.1-1.8-0.2-1.9-0.1-3
		c0-0.6,0.1-0.9,0-1.3c-0.1-0.3-0.4-0.8-2.2-1.7c-2.1-1-2.3-0.7-3.4-1.5c-0.6-0.4-0.9-0.8-1.4-0.7c-0.4,0.1-0.6,0.4-1.3,1.3
		c0,0-0.8,1-1.7,1.9c-1,1-1.1,0.9-1.7,1.6c-0.9,1-0.9,1.7-1.3,1.7c-0.5,0-0.5-1.2-1.7-2.4c-0.6-0.6-0.9-0.6-2.2-1.7
		c-0.5-0.4-0.7-0.6-1-1c-0.9-1.1-1-1.9-1.3-1.8c-0.3,0-0.4,1.4-0.3,2.4c0.1,0.9,0.3,1.6,0.5,2.3c0.3,1,0.6,1.7,0.6,1.7
		c0,0-0.3-0.8-0.6-1.7c-0.4-1.7-0.3-3.1-0.1-4.7c0-0.5,0.1-1.3,0.3-2.3c0.3-1.4,0.5-1.9,1-3.7c1-3.4,0.6-3.1,1.3-4.8
		c0,0,0.5-1.3,0.9-3c0.2-0.8,0.3-1.4-0.1-1.8c-0.4-0.4-1-0.3-1.1-0.3c-2.1,0.1-10.4-3.2-15.4-6.5c-5.4-3.6-7.6-7.6-8.2-7.2
		c-0.5,0.4,2,4.6,3.5,7.2c1.3,2.2,2,3.4,3.1,4.6c0.9,1,2.7,3,5.6,4.5c0.6,0.3,1.3,0.6,1.3,0.7c0,0.1-2.3-0.6-4.6-1.7
		c-1.8-0.9-3.3-1.6-4.9-3c-0.6-0.5-1.9-1.7-3-2.7c-1.2-1.2-1.8-1.8-2-1.6c-0.4,0.2,0.3,2.2,0.5,2.9c0.7,2,1.3,2.5,1,3.2
		c-0.3,0.7-1.5,1.2-2.3,0.8c-1-0.4-1.1-2-1.1-2.7c0-0.4,0-0.4,0-1.4c0-1,0-1.4-0.1-1.8c-0.2-1-0.8-1.7-1.4-2.3
		c-0.8-0.9-2.2-2-2.5-1.7c-0.3,0.2,0.1,1.1,0.3,1.7c0.1,0.3,0.3,0.6,0.7,1.4c0.3,0.5,1.1,2,0.8,1.5c0,0-0.9-0.2-1.5-0.5
		c-0.7-0.4-1.1-0.9-1.5-1.4c-0.5-0.6-0.6-1.1-0.8-1.5c-0.9-2.2-1.7-2.4-1.9-3.4c-0.3-1.2,0.4-2.2,1.8-4.6c1.4-2.3,2.6-4.7,3.9-7
		c1.9-3.2,2.8-4.7,3.5-6c1.6-2.9,1.9-4,6.4-15.3c0.4-0.9,0.9-2.3,1.4-4.2c0.5-1.7,0.3-1.8,0.8-3.7c0.5-1.8,0.6-1.9,1.6-5.2
		c0.6-1.9,0.5-1.9,1-3.3c0.5-1.5,0.6-1.8,1.3-3.9c1.1-3.3,0.9-2.9,1.5-4.5c1-2.7,1.5-4,1.6-4.2c0.3-0.4,0.8-1,0.6-1.7
		c-0.1-0.4-0.5-0.7-0.7-1c-0.4-0.3-0.6-0.5-0.9-0.5c-0.4,0-0.5,0.6-1,1.4c-0.3,0.5-0.8,1-1.9,2.1c-0.7,0.7-0.7,0.7-1,1
		s-0.8,0.9-1.1,1.7c-0.4,0.8-0.2,0.8-0.5,1.4c-0.4,0.8-0.7,0.8-1.5,1.9c-0.1,0.1,0,0.1-0.9,1.4c-0.5,0.9-0.8,1.4-0.9,1.5
		c-0.5,0.7-0.8,0.7-1.5,1.5c-0.6,0.7-0.5,0.7-1,1.4c-0.4,0.5-0.5,0.5-1.8,1.7c-0.8,0.7-0.9,0.9-1.5,1.4c-0.3,0.3-0.6,0.5-1.1,0.9
		c-0.8,0.6-1,0.6-1.9,1.3c-0.6,0.4-0.5,0.4-0.9,0.6c-0.6,0.4-0.8,0.4-1.7,0.8c-0.4,0.2-0.8,0.4-1.2,0.7c-0.3,0.2-0.5,0.3-0.9,0.6
		c-0.3,0.1-0.6,0.3-0.6,0.3c0,0,1.2-0.7,2.5-1.4c1.4-0.8,3-1.7,3.6-2.1c3.3-2.1,5.1-5.4,7.4-9.6c0.6-1.2,1.1-2.1,1.4-2.7
		c0.5-1.1,1.1-2.5,1.7-4.6c0.9-2.8,1.6-5.1,1.9-8.1c0.4-3.6,0.8-6.2,0.3-8.7c0,0-0.3-1.8,0.3-4.6c0-0.2,0.1-0.5,0.3-0.7
		c0.4-0.4,0.8-0.2,1.7-0.6c0.5-0.2,0.9-0.5,1.1-0.6c0.5-0.4,0.9-0.8,1.1-1c0.5-0.5,0.5-0.7,0.9-1.2c0.4-0.5,0.7-0.8,1-1
		c1.2-1.1,2.4-2.2,3-3.7c0.4-1.1,0.3-2,0.3-2.5c-0.1-1.3-0.5-2.3-0.8-2.9c-0.1-0.1-0.3-0.6-0.6-1.2c-0.3-0.6-0.7-1-0.9-1.3
		c-0.3-0.4-0.6-0.7-0.9-1c-0.5-0.6-0.9-1-1.2-1.3c-0.1-0.1-0.1-0.1-1-1c-0.9-0.9-1-0.9-1-1c-0.5-0.6-0.5-0.7-1-1.3
		c-0.3-0.3-0.4-0.5-0.7-0.7c-0.6-0.5-1.3-0.8-2.1-1.1c-0.5-0.2-0.4-0.1-1-0.3c-0.4-0.2-1-0.4-1.7-0.7c-0.5-0.3-0.6-0.4-1-0.5
		c0,0-0.3-0.1-0.9-0.3c-0.2-0.1-0.5-0.2-0.9-0.3c0,0-0.1,0-0.1,0c-0.2,0-0.5-0.1-1.1-0.2c-0.3,0-0.5-0.1-0.5-0.1
		c-0.1,0.1,1.5,1,3.4,2c0.2,0.1,0.7,0.4,1.3,0.8c0.6,0.5,1,0.8,1.1,1c0.3,0.3,0.5,0.6,0.6,0.9c0.3,0.5,0.4,0.8,0.7,1.3
		c0.4,0.7,0.6,1.1,0.8,1.4c1.5,2.6,2,5,2,5c0.2,0.9,0,0.4,0.3,4.4c0.2,2.6,0.3,3.1,0,4.1c-0.2,0.7-0.5,1.5-1.1,2.8
		c-0.5,1.3-0.9,2-0.7,2.1c0.2,0.2,0.7-0.1,1.2-0.4c1.9-1.2,2.6-2.2,4.5-3.9c0.8-0.7,1.5-1.3,2.2-2.3c0.4-0.5,0.6-0.9,0.8-1.4
		c0.2-0.9,0-1.5,0.3-1.7c0.2-0.1,0.5,0.1,1,0.3c0.6,0.3,1,0.2,1.9,0.3c0.7,0.1,2.6,0.3,4.3,1c0.6,0.2,1.3,0.6,2.6,1.3
		c0.9,0.4,1.5,0.8,2.9,1.5c1.4,0.8,2,1.1,2.5,1.4c0.9,0.6,1.5,1,2.6,1.9c0.8,0.6,1.7,1.3,3,2.4c1,0.9,1.8,1.6,2.3,2.2
		c2.2,2.1,6.3,6.2,9.3,10c1,1.3,2.2,3,2.6,3.5c0.4,0.6,0.8,1.2,0.8,1.2c0.1,0.1,0.2,0.3,0.3,0.4c0.6,0.9,0.4,1.3,0.8,1.9
		c0.3,0.4,0.5,0.3,1,1c0.3,0.3,0.3,0.4,0.5,0.7c0.6,0.7,1.1,0.8,1.7,1.3c0.7,0.5,0.5,0.8,1.3,1.7c0.8,0.8,0.9,0.7,1.7,1.5
		c0.8,0.8,1.2,1.7,1.5,2.3c0.4,0.8,0.6,1.5,0.8,1.9c0.1,0.2,0.3,0.9,0.5,1.8c0.2,0.7,0.3,1.2,0.3,2c0.1,0.8,0,0.8,0,1.7
		c0,0.5,0.1,1,0.2,1.9c0.2,1.2,0.4,2.4,0.4,2.4c0.4-2.4-0.2,1.9-0.2,1.9c0.1,0.4,0.3,0.7,0.7,1.4c0.4,0.6,0.6,0.8,1.2,1.5
		c0.3,0.4,0.6,0.7,1.1,1.5c1.5,2,1.3,1.9,1.7,2.2c1.2,1.2,2.5,1.8,2.5,1.8c0.2,0.1,0.8,0.4,1.1,1c0,0.1,0.3,0.5,0.1,0.7
		c0,0.1-0.3,0.2-1.8-0.5c-1.1-0.5-1.8-1-1.9-1c-0.3-0.2-4.7-2.9-5.3-3.7c-0.2-0.2-0.3-0.3-0.3-0.3c-0.3-0.4-0.4-0.6-0.4-0.6
		c-0.1,0,0,1.1,0.1,2.5c0,0.9,0,1.5-0.1,2.3c-0.1,0.7-0.2,1.3-0.4,2.1c-0.3,1.3-0.5,1.9-0.7,2.5c-0.5,1-0.8,1.1-0.9,1.8
		c-0.1,0.4,0,0.6,0.2,1.6c0.2,1.3,0.1,1.4,0.3,2.1c0.3,1.3,0.8,1.3,1.2,2.5c0.3,1.1,0,1.4,0.1,3.9c0,1,0.1,1.8,0.2,2.5
		c0.3,3,0.7,3.1,0.6,4.9c0,1.1-0.2,1.5-0.1,2.7c0.1,1.1,0.2,1.9,0.3,2.2c0.7,3.4-2.4,9.5-2.6,9.4c-0.1,0,0.5-1.2,0.7-3.5
		c0-0.5,0.1-1.3,0-2.3c-0.1-0.7-0.2-1.6-0.8-3.4c-0.8-2.3-1.3-2.8-2.2-5.3c-0.1-0.2-0.5-1.3-0.9-2.7c-1.3-4.3-1.3-6.5-2-6.6
		c-0.5-0.1-1.1,1-2,2.6c-0.6,1.2-0.5,1.3-1.2,2.5c-0.6,1.1-1.1,1.8-2.2,3.3c-0.5,0.7-0.9,1.3-1.5,2c-1.4,1.6-2.8,3-2.9,2.9
		c-0.1-0.1,1.2-1.3,2.7-3.8c0.3-0.4,0.9-1.4,1.6-2.7c0.5-0.9,0.9-1.7,1-2.1c0.2-0.4,1.2-2.6,1.6-6.1c0.7-5.6-0.3-13-0.3-13
		c-0.5-4.1-0.8-4.1-3.7-17.4c0,0-1.2-5.5-3.2-9c-0.1-0.2-0.9-1.5-0.9-1.5s0.8,1.4,0.9,1.5c1.8,3.1,2.6,8,2.8,9
		c1.1,6.3,1.6,5,3.4,14.2c0.4,2.2,1.5,8,1.1,8.1c-0.2,0-0.7-1.4-1.3-3c-1.4-3.6-3.1-8.1-5.8-12.1c-2.4-3.5-3.7-4.1-5.3-7.7
		c-0.3-0.8-0.2-0.6-1.3-3.6c-1-2.6-1.8-4.7-2.9-7.2c-1.1-2.6-1.7-3.9-2.5-5c-1.2-1.8-2.3-3-4.4-5c-2.9-2.8-5.1-4.6-5.1-4.6
		s2.3,1.8,5.1,4.6c2.1,2.1,3.2,3.2,4.4,5c0.4,0.6,0.4,0.6,2.5,5c2.1,4.4,2.6,5.4,2.9,7.2c0.2,1.2,0,1,0,3.8c0,4.5,0.5,5.2,0.5,9.5
		c0,1.8,0,3.1-0.3,4.9c-0.2,1.1-0.5,3.4-1.5,5.9c-0.8,1.9-1.9,3.4-3.9,6.3c-2.1,2.8-3.5,4.3-6,6.8c-0.2,0.2-1.4,1.4-1.5,1.3
		c-0.2-0.1,1.5-1.8,2.6-4.6c0.5-1.2,0.4-1.4,1-2.9c0.7-1.6,0.9-1.7,1.5-3.2c0.3-0.8,0.6-1.7,1.1-3.4c0.6-1.9,0.5-1.9,0.8-2.9
		c1.6-5.3,2.6-7.3,2.6-7.3c0.1-0.1,0.3-0.7,0.5-1.4c0.1-0.7,0.1-1.3,0-1.3c-0.1,0-0.3,2.3-1.2,4.2c-0.1,0.1-0.2,0.4-0.4,0.9
		c-0.3,0.7-0.4,1.3-0.5,1.8c-0.9,3.5-4.4,7.7-5.2,8.7c-0.6,0.7-1.8,2.2-3.8,3.7c-1.9,1.5-3,2-4.2,1.8c-0.6-0.1-1.5-0.3-1.5-0.5
		c0-0.2,0.7-0.2,1-0.3c1.6-0.2,2.8-1.3,4-2.4c3.9-3.5,6.7-9.4,6.7-9.4c2.2-4.8,4.8-10.1,5-17.6c0.1-2.9,0.2-5.8-1.2-9.2
		c0,0-1.7-4.3-5.5-7.6c-0.9-0.8-2.1-1.5-4.3-2.9c-0.3-0.2-0.8-0.5-0.9-0.4c-0.1,0.1,0.7,0.9,1.5,1.9c1,1.3,1.6,2.5,1.8,3.1
		c0.6,1.4,0.8,2.5,1,4c0.4,2.1,0.4,3.8,0.4,5.1c0,1.1,0,3.5-0.3,6.5c0,0.5-0.2,1.3-0.9,5.3c-0.7,3.7-1,5.6-1.1,5.9
		c-1.3,4.7-2.6,4.8-4,9.3c-0.2,0.8-0.5,2-1.5,3c-0.6,0.7-1,0.7-2.3,1.8c-1.3,1.1-1.8,1.8-1.9,1.7c-0.2-0.2,1-2,2-4.5
		c0.6-1.5,2.1-4.9,2.5-9.2c0-0.5,0,0,0.1-5.4c0-0.8,0-2.5,0-4.8c0-2.4-0.1-3.1-0.2-3.7c-0.1-0.4-0.3-1.8-1-3.5
		c-0.4-0.9-0.7-1.5-1.1-2.3c-0.9-1.6-1.1-1.7-1.9-3.2c-0.9-1.7-0.8-1.8-1.6-3.1c-1.1-1.7-1.1-1.1-1.7-2.3c-0.1-0.2-0.4-0.6-0.6-0.6
		c-0.2,0-0.2,0.3-0.5,0.7c-0.2,0.3-0.4,0.4-0.6,0.6c-0.7,0.7-1.1,1.7-1.1,1.7c0.1,0,1.3-1.6,2.2-3.1c1.5-2.4,2.7-4.3,3.3-7
		c0.2-1.1,0.5-2.6,0.2-4.5c-0.1-0.8-0.5-2.6-1.9-4.1c-0.7-0.7-0.8-0.6-2-1.7c-0.6-0.6-0.9-1-1.3-0.9c-0.4,0-0.4,0.5-1.1,1
		c-0.1,0.1-0.2,0.1-1.6,0.7c-1.1,0.5-1.1,0.5-1.2,0.4c-0.2-0.2,1-1.7,2.2-2.8c0.9-0.9,1.1-0.8,1.9-1.7c0.5-0.5,1.3-1.3,2.1-2.5
		c0.9-1.5,1.2-2.7,1.3-3.4c0.3-1.3,0.2-1.8,0.1-2c-0.2-0.6-0.3-0.4-1-1.7c-0.2-0.4-0.4-0.8-0.9-1.3c-0.2-0.2-0.5-0.5-0.6-0.4
		c-0.1,0.1-0.1,0.4,0,1c0.1,0.8,0.3,0.9,0.3,1.4c0,0.2,0,0.6-0.2,1.3c-0.2,1-0.2,1.1-0.1,1.3c0.2,0.2,0.5,0.1,1.4,0.2
		c0.7,0.1,1.1,0.3,1.1,0.3c0,0-2-1-2.5-0.5c-0.1,0.2,0,0.3-0.2,1c0,0.2-0.1,0.3-0.3,1c-0.3,0.7-0.4,1-0.5,1.3
		c-0.3,0.9-0.1,0.8-0.3,1.3c-0.3,0.7-0.6,0.8-0.9,1.7c-0.1,0.3-0.1,0.5-0.2,0.6c-0.4,1.5-2.2,2.6-2.4,2.4c-0.1-0.1,0.8-0.8,1.3-2.4
		c0.1-0.3,0.3-0.9,0.3-2.5c0-1.2,0-2-0.2-3.7c-0.3-3.1-0.3-3.7-0.4-4.1c0,0,0-0.1,0-0.2C447.8,15.6,447.1,14.7,446.6,14.2z"/>
<g>
</g>
<g>
</g>
<g>
</g>
<g>
</g>
<g>
</g>
<g>
</g>
</svg>
